<?xml version="1.0" encoding="UTF-8" standalone="no"?>
<!-- Generator: Adobe Illustrator 17.1.0, SVG Export Plug-In . SVG Version: 6.00 Build 0)  -->

<svg
   xmlns:dc="http://purl.org/dc/elements/1.1/"
   xmlns:cc="http://creativecommons.org/ns#"
   xmlns:rdf="http://www.w3.org/1999/02/22-rdf-syntax-ns#"
   xmlns:svg="http://www.w3.org/2000/svg"
   xmlns="http://www.w3.org/2000/svg"
   xmlns:sodipodi="http://sodipodi.sourceforge.net/DTD/sodipodi-0.dtd"
   xmlns:inkscape="http://www.inkscape.org/namespaces/inkscape"
   version="1.1"
   id="Calque_1"
   x="0px"
   y="0px"
   viewBox="0 0 44.315386 31.141749"
   enable-background="new 0 0 62.2 43.1"
   xml:space="preserve"
   inkscape:version="0.48.4 r9939"
   width="100%"
   height="100%"
   sodipodi:docname="bee.svg"><metadata
     id="metadata67"><rdf:RDF><cc:Work
         rdf:about=""><dc:format>image/svg+xml</dc:format><dc:type
           rdf:resource="http://purl.org/dc/dcmitype/StillImage" /></cc:Work></rdf:RDF></metadata><defs
     id="defs65" /><sodipodi:namedview
     pagecolor="#ffffff"
     bordercolor="#666666"
     borderopacity="1"
     objecttolerance="10"
     gridtolerance="10"
     guidetolerance="10"
     inkscape:pageopacity="0"
     inkscape:pageshadow="2"
     inkscape:window-width="640"
     inkscape:window-height="480"
     id="namedview63"
     showgrid="false"
     fit-margin-top="0"
     fit-margin-left="0"
     fit-margin-right="0"
     fit-margin-bottom="0"
     inkscape:zoom="5.4756381"
     inkscape:cx="21.974432"
     inkscape:cy="15.449999"
     inkscape:window-x="57"
     inkscape:window-y="24"
     inkscape:window-maximized="0"
     inkscape:current-layer="Calque_1" /><g
     id="g3"
     transform="translate(-9.1255682,-5.85825)"><path
       d="m 22.2,24.2 c 1.6,-0.8 5.1,-1.5 6.7,-2.4 0,0 0.1,0.1 0.1,0.1 0,0 0,0 0,0.1 -0.5,0.4 -0.9,0.8 -1.3,1.3 0,0.1 -0.1,0.1 -0.2,0.1 -0.9,0.4 -3.6,0.8 -4.4,1.2 -0.1,0.1 -0.2,0.1 -0.4,0 -0.1,-0.2 -0.3,-0.3 -0.5,-0.4 z"
       id="path5"
       inkscape:connector-curvature="0" /><path
       d="m 40.4,24.2 c -0.2,0.2 -0.4,0.3 -0.6,0.5 0,0 -0.1,0 -0.2,0 -0.9,-0.5 -3.7,-0.8 -4.6,-1.2 0,0 -0.1,0 -0.1,-0.1 -0.4,-0.5 -0.8,-1 -1.3,-1.4 0,-0.1 0.1,-0.1 0.1,-0.1 1.6,0.7 5.1,1.4 6.7,2.3 z"
       id="path7"
       inkscape:connector-curvature="0" /><path
       d="m 28.8,22 c 0,0 -2,1.2 -2.2,1.9 -0.3,0.7 -1.2,2.4 -0.5,4.4 1,2.6 5.2,8.7 5.2,8.7 0,0 5.1,-7.5 5.2,-8.7 0.1,-0.8 0.7,-2.6 -0.5,-4.5 -1.1,-1.8 -3,-1.9 -3,-1.9"
       id="path9"
       inkscape:connector-curvature="0" /><path
       d="m 36.5,28.4 c -0.1,0.5 -0.2,0.9 -0.5,1.3 -0.2,0.5 -0.7,1 -0.9,1.5 0,0.1 -0.1,0.1 -0.2,0.2 -0.6,0.4 -1.3,0.7 -2,0.6 -1.1,0 -2.2,0 -3.3,0 -0.7,0 -1.4,-0.3 -1.9,-0.7 0,0 -0.1,-0.1 -0.1,-0.1 -0.7,-1.2 -0.9,-1.9 -1.4,-2.8 0,0 0,-0.1 0,-0.1 0.3,0.2 0.6,0.3 0.9,0.5 0.5,0.2 1.1,0.3 1.7,0.3 1.8,0 3.6,0 5.4,0 0.8,0 1.5,-0.3 2.2,-0.7 0,0 0,0 0.1,0 0,0 0,0 0,0 z"
       id="path11"
       inkscape:connector-curvature="0"
       style="fill:#eee520" /><path
       d="m 26.6,23.9 c 0.4,-0.5 0.8,-1 1.3,-1.3 0.3,0.2 0.7,0.5 1,0.7 0.4,0.2 0.8,0.3 1.3,0.3 0.8,0 1.5,0 2.3,0 0.8,0 1.5,-0.3 2.1,-0.8 0.1,-0.1 0.2,-0.2 0.3,-0.2 0.5,0.4 0.9,0.8 1.3,1.3 -0.9,0.9 -1.8,1.6 -3.1,1.6 -1,0 -2,0 -3,0 -1,0 -1.9,-0.3 -2.6,-1 -0.5,-0.2 -0.7,-0.4 -0.9,-0.6 z"
       id="path13"
       inkscape:connector-curvature="0"
       style="fill:#eee520" /><path
       d="m 30,9.4 c 0.4,-0.3 0.8,-0.5 1.2,-0.8 0,0 0.1,0 0.2,0 0.4,0.2 0.8,0.5 1.2,0.8 -0.9,0.8 -1.2,1.8 -0.9,3 0.3,1.1 1.1,1.8 2.3,2.1 -0.1,0.1 -0.2,0.3 -0.3,0.4 0,0 -0.1,0 -0.2,0 -0.4,0 -0.7,-0.1 -1.1,-0.1 -0.9,0 -1.8,0 -2.7,0 -0.1,0 -0.1,0 -0.2,0 -0.5,0.1 -0.5,0.1 -0.8,-0.4 1.1,-0.3 2,-0.9 2.3,-2.1 0.2,-1 -0.1,-2 -1,-2.9 z"
       id="path15"
       inkscape:connector-curvature="0"
       style="fill:#ffffff" /><path
       d="m 33.2,34.2 c -0.6,0.9 -1.3,1.9 -1.9,2.8 -0.6,-0.9 -1.3,-1.9 -1.9,-2.8 1.3,0 2.5,0 3.8,0 z"
       id="path17"
       inkscape:connector-curvature="0"
       style="fill:#eee520" /><path
       d="m 40.4,24.2 c 0.4,2 1.4,4.8 1.8,6.8 0,0 0,0 0,0 -0.1,-0.3 -0.2,-0.6 -0.3,-0.9 -0.5,-1.4 -1.5,-3.8 -2,-5.2 0,-0.1 0,-0.2 0.1,-0.3 0.1,-0.2 0.2,-0.3 0.4,-0.4 z"
       id="path19"
       inkscape:connector-curvature="0" /><path
       d="m 22.2,24.1 c 0,0.1 0,0.1 0,0 0.2,0.2 0.5,0.3 0.6,0.4 0.1,0.2 -0.1,0.4 -0.1,0.6 -0.5,1.6 -1.6,4.1 -2.1,5.7 0,0 0,0.1 -0.1,0.1 0.3,-1.9 1.3,-4.8 1.7,-6.8 z"
       id="path21"
       inkscape:connector-curvature="0" /><path
       d="m 29.2,10.1 c 0,0.1 0,0.1 0,0 0.4,0.3 0.4,0.3 0.2,0.7 -0.5,0.7 -0.8,1.5 -0.7,2.3 0,0.1 0,0.2 -0.1,0.2 -0.4,0.1 -0.5,0.1 -0.6,-0.4 0,-0.5 0,-0.9 0.2,-1.3 0.2,-0.5 0.6,-1 1,-1.5 z"
       id="path23"
       inkscape:connector-curvature="0"
       style="fill:#ffffff" /><path
       d="m 33,10.5 c 0.1,-0.1 0.3,-0.3 0.4,-0.4 0.4,0.5 0.8,1 1,1.6 0.2,0.5 0.3,1 0.2,1.6 0,0.1 -0.1,0.2 -0.2,0.2 C 34,13.4 34,13.4 34,13 34,12.3 33.8,11.6 33.4,11 33.2,10.8 33.1,10.7 33,10.5 z"
       id="path25"
       inkscape:connector-curvature="0"
       style="fill:#ffffff" /><path
       d="m 39,15.4 c -0.9,0.5 -3.3,2 -4.2,2.5 -0.1,-0.2 -0.3,-0.4 -0.4,-0.6 0,0 -0.1,-0.3 -0.1,-0.4 0.8,-0.4 3.2,-1.6 4.1,-2 0.1,-0.1 0.2,-0.1 0.3,0 0,0.2 0.2,0.4 0.3,0.5 z"
       id="path27"
       inkscape:connector-curvature="0" /><path
       d="m 23.8,15.5 c 0.1,-0.2 0.3,-0.4 0.4,-0.6 0.9,0.4 3.2,1.7 4.1,2.1 -0.2,0.2 -0.3,0.7 -0.5,0.9 -0.9,-0.4 -3.2,-2 -4,-2.4 z"
       id="path29"
       inkscape:connector-curvature="0" /><path
       d="m 21.2,11.9 c 0.7,0.8 2.2,2.2 3,3 -0.1,0.2 -0.3,0.4 -0.4,0.6 -0.6,-1 -2,-2.6 -2.6,-3.6 0,0 0,0 0,0 z"
       id="path31"
       inkscape:connector-curvature="0" /><path
       d="m 24.4,21.5 c 0.1,-0.2 0.1,-0.5 0.2,-0.7 1,0.1 3.6,0.5 4.5,0.7 -0.1,0.2 -0.1,0.8 -0.2,1 -0.9,-0.2 -3.5,-0.9 -4.5,-1 z"
       id="path33"
       inkscape:connector-curvature="0" /><path
       d="m 20.8,18.9 c 0.9,0.5 2.9,1.4 3.8,1.9 -0.1,0.2 -0.1,0.4 -0.2,0.7 -0.9,-0.7 -4.3,-2.5 -5.2,-3.2 0,-0.1 1.6,0.6 1.6,0.6 z"
       id="path35"
       inkscape:connector-curvature="0" /><path
       d="m 39,15.4 c -0.1,-0.2 -0.3,-0.3 -0.4,-0.5 0.7,-0.7 2.1,-2.2 2.8,-3 0,0 0,0 0,0 -0.5,0.9 -1.8,2.6 -2.4,3.5 z"
       id="path37"
       inkscape:connector-curvature="0" /><path
       d="m 38.1,20.4 c -0.9,0.5 -3.3,2 -4.2,2.5 -0.1,-0.2 -0.3,-0.4 -0.4,-0.6 0,0 -0.1,-0.3 -0.1,-0.4 0.8,-0.4 3.2,-1.6 4.1,-2 0.1,-0.1 0.2,-0.1 0.3,0 0.1,0.2 0.2,0.3 0.3,0.5 z"
       id="path39"
       inkscape:connector-curvature="0" /><path
       d="m 38.1,20.4 c -0.1,-0.2 -0.3,-0.3 -0.4,-0.5 0.7,-0.7 2.1,-2.2 2.8,-3 0,0 0,0 0,0 -0.5,0.9 -1.8,2.5 -2.4,3.5 z"
       id="path41"
       inkscape:connector-curvature="0" /><ellipse
       cx="31.200001"
       cy="13"
       rx="4.3000002"
       ry="4.9000001"
       id="ellipse43"
       sodipodi:cx="31.200001"
       sodipodi:cy="13"
       sodipodi:rx="4.3000002"
       sodipodi:ry="4.9000001"
       d="m 35.500001,13 c 0,2.706195 -1.925176,4.9 -4.3,4.9 -2.374825,0 -4.3,-2.193805 -4.3,-4.9 0,-2.706195 1.925175,-4.9000001 4.3,-4.9000001 2.374824,0 4.3,2.1938051 4.3,4.9000001 z" /><line
       stroke-miterlimit="10"
       x1="29.1"
       y1="6.1999998"
       x2="29.9"
       y2="8.6000004"
       id="line45"
       style="stroke:#000000;stroke-width:0.28349999;stroke-miterlimit:10" /><line
       stroke-miterlimit="10"
       x1="32.599998"
       y1="8.8999996"
       x2="33.200001"
       y2="6"
       id="line47"
       style="stroke:#000000;stroke-width:0.28349999;stroke-miterlimit:10" /><path
       d="m 34.3,20.7 c 0.2,-0.5 0.4,-0.9 0.5,-1.3 0.2,-0.5 0.2,-1.1 0,-1.6 0,-0.1 1.9,-0.1 2.1,-0.1 0.4,-0.1 0.9,-0.2 1.3,-0.3 2.4,-0.5 4.7,-0.9 7.1,-1.4 1.8,-0.3 3.6,-0.7 5.4,-1 0.4,-0.1 0.8,-0.1 1.2,-0.1 0.8,0 1.2,0.3 1.4,1.1 0.3,0.9 0.1,1.7 -0.4,2.5 -0.5,0.8 -1.3,1.3 -2.1,1.7 -0.2,0.1 -0.4,0.3 -0.5,0.5 -0.8,1.7 -2.1,2.8 -4,3 C 45.2,23.8 44.1,23.6 43,23.3 41.2,22.7 39.3,22.1 37.5,21.6 37,21.2 34.7,20.9 34.3,20.7 z"
       id="path49"
       inkscape:connector-curvature="0"
       style="opacity:0.75;fill:#c7e1ea" /><path
       d="m 27.2,17.7 c -0.3,1.1 0,2.1 0.5,3.1 -0.5,0.3 -2.4,0.6 -2.9,0.8 -2.1,0.6 -4.1,1.4 -6.2,1.9 -2.5,0.7 -5.1,-0.1 -6.3,-2.7 C 12.2,20.5 12,20.3 11.7,20.2 10.8,19.7 10,19.1 9.5,18.2 9.1,17.5 9,16.7 9.3,16 c 0.3,-0.8 0.7,-1 1.5,-1 0.8,0 1.6,0.2 2.4,0.3 2.6,0.5 5.3,1 7.9,1.5 1.4,0.3 2.8,0.5 4.2,0.8 0.2,-0.1 1.7,0 1.9,0.1 z"
       id="path51"
       inkscape:connector-curvature="0"
       style="opacity:0.75;fill:#c7e1ea" /><path
       d="m 31.3,15.9 c 0.6,0 1.2,-0.1 1.8,0 0.9,0.1 1.7,0.6 2.2,1.3 0.6,0.8 0.5,1.7 0.1,2.6 -0.4,0.9 -1,1.6 -1.8,2.2 -0.4,0.3 -0.8,0.5 -1.4,0.5 -0.7,0 -1.4,0 -2.1,0 -0.5,0 -0.9,-0.1 -1.2,-0.4 -0.9,-0.7 -1.6,-1.5 -2,-2.6 -0.4,-1 -0.1,-2 0.8,-2.8 0.7,-0.6 1.4,-0.9 2.3,-0.9 0.5,0.1 0.9,0.1 1.3,0.1 0,0 0,0 0,0 z"
       id="path53"
       inkscape:connector-curvature="0" /><ellipse
       cx="29"
       cy="11.8"
       rx="1.3"
       ry="2"
       id="ellipse55"
       sodipodi:cx="29"
       sodipodi:cy="11.8"
       sodipodi:rx="1.3"
       sodipodi:ry="2"
       style="fill:#ffffff"
       d="m 30.3,11.8 c 0,1.10457 -0.58203,2 -1.3,2 -0.71797,0 -1.3,-0.89543 -1.3,-2 0,-1.104569 0.58203,-1.9999998 1.3,-1.9999998 0.71797,0 1.3,0.8954308 1.3,1.9999998 z" /><ellipse
       cx="33.599998"
       cy="11.9"
       rx="1.3"
       ry="2"
       id="ellipse57"
       sodipodi:cx="33.599998"
       sodipodi:cy="11.9"
       sodipodi:rx="1.3"
       sodipodi:ry="2"
       style="fill:#ffffff"
       d="m 34.899998,11.9 c 0,1.104569 -0.582029,2 -1.3,2 -0.71797,0 -1.299999,-0.895431 -1.299999,-2 0,-1.10457 0.582029,-2.0000004 1.299999,-2.0000004 0.717971,0 1.3,0.8954304 1.3,2.0000004 z" /><circle
       cx="29"
       cy="10.7"
       r="0.60000002"
       id="circle59"
       sodipodi:cx="29"
       sodipodi:cy="10.7"
       sodipodi:rx="0.60000002"
       sodipodi:ry="0.60000002"
       style="fill:#030405"
       d="m 29.6,10.7 c 0,0.331371 -0.268629,0.6 -0.6,0.6 -0.331371,0 -0.6,-0.268629 -0.6,-0.6 0,-0.331371 0.268629,-0.6 0.6,-0.6 0.331371,0 0.6,0.268629 0.6,0.6 z" /><circle
       cx="33.5"
       cy="10.7"
       r="0.5"
       id="circle61"
       sodipodi:cx="33.5"
       sodipodi:cy="10.7"
       sodipodi:rx="0.5"
       sodipodi:ry="0.5"
       style="fill:#030405"
       d="m 34,10.7 c 0,0.276142 -0.223858,0.5 -0.5,0.5 -0.276142,0 -0.5,-0.223858 -0.5,-0.5 0,-0.276143 0.223858,-0.5 0.5,-0.5 0.276142,0 0.5,0.223857 0.5,0.5 z" /></g></svg>