<?xml version="1.0" encoding="UTF-8" standalone="no"?>
<!-- Generator: Adobe Illustrator 17.1.0, SVG Export Plug-In . SVG Version: 6.00 Build 0)  -->

<svg
   xmlns:dc="http://purl.org/dc/elements/1.1/"
   xmlns:cc="http://creativecommons.org/ns#"
   xmlns:rdf="http://www.w3.org/1999/02/22-rdf-syntax-ns#"
   xmlns:svg="http://www.w3.org/2000/svg"
   xmlns="http://www.w3.org/2000/svg"
   xmlns:sodipodi="http://sodipodi.sourceforge.net/DTD/sodipodi-0.dtd"
   xmlns:inkscape="http://www.inkscape.org/namespaces/inkscape"
   version="1.1"
   id="Calque_1"
   x="0px"
   y="0px"
   viewBox="0 0 22.6 22.6"
   enable-background="new 0 0 38.5 31.1"
   xml:space="preserve"
   inkscape:version="0.48.4 r9939"
   width="100%"
   height="100%"
   sodipodi:docname="button.svg"><metadata
     id="metadata13"><rdf:RDF><cc:Work
         rdf:about=""><dc:format>image/svg+xml</dc:format><dc:type
           rdf:resource="http://purl.org/dc/dcmitype/StillImage" /></cc:Work></rdf:RDF></metadata><defs
     id="defs11" /><sodipodi:namedview
     pagecolor="#ffffff"
     bordercolor="#666666"
     borderopacity="1"
     objecttolerance="10"
     gridtolerance="10"
     guidetolerance="10"
     inkscape:pageopacity="0"
     inkscape:pageshadow="2"
     inkscape:window-width="874"
     inkscape:window-height="722"
     id="namedview9"
     showgrid="false"
     fit-margin-top="0"
     fit-margin-left="0"
     fit-margin-right="0"
     fit-margin-bottom="0"
     inkscape:zoom="7.5884244"
     inkscape:cx="11.65"
     inkscape:cy="11.35"
     inkscape:window-x="530"
     inkscape:window-y="247"
     inkscape:window-maximized="0"
     inkscape:current-layer="Calque_1" /><path
     d="M 0.27512948,8.8163472 C 1.6372378,2.7678217 7.7330813,-1.0871344 13.781608,0.27497363 19.927689,1.6590515 23.685088,7.7329257 22.301012,13.879008 20.841345,19.905566 14.865028,23.684933 8.816503,22.322825 2.6704205,20.938748 -1.0869788,14.864873 0.27512948,8.8163472 z M 9.2339232,20.469245 C 14.30688,21.611658 19.326986,18.436989 20.447431,13.461588 21.589844,8.388631 18.437143,3.2709676 13.364187,2.1285542 8.2912305,0.98614066 3.3686802,4.18278 2.1506794,9.1362106 1.008266,14.209167 4.0634093,19.304862 9.2339232,20.469245 z"
     id="path3"
     inkscape:connector-curvature="0" /><path
     d="M 10.266489,15.884072 C 7.7300107,15.312866 6.1426757,12.802812 6.7138824,10.266333 7.2850892,7.7298548 9.7951424,6.1425201 12.331621,6.7137268 c 2.536479,0.5712065 4.123813,3.0812602 3.552607,5.6177382 -0.571207,2.536479 -2.983703,4.145783 -5.617739,3.552607 z"
     id="path5"
     inkscape:connector-curvature="0" /><path
     d="m 6.6058789,13.932167 c 0.4974633,0.522045 1.3948329,1.544164 1.9898528,2.088177 -1.0537676,0.58273 -2.3562668,0.904438 -3.4320039,1.584724 0,0 0,0 0,0 0.4807171,-1.2243 0.8858467,-2.568127 1.4421511,-3.672901 z"
     id="path7"
     inkscape:connector-curvature="0" /></svg>