<?xml version="1.0" encoding="UTF-8" standalone="no"?>
<!-- Generator: Adobe Illustrator 17.1.0, SVG Export Plug-In . SVG Version: 6.00 Build 0)  -->

<svg
   xmlns:dc="http://purl.org/dc/elements/1.1/"
   xmlns:cc="http://creativecommons.org/ns#"
   xmlns:rdf="http://www.w3.org/1999/02/22-rdf-syntax-ns#"
   xmlns:svg="http://www.w3.org/2000/svg"
   xmlns="http://www.w3.org/2000/svg"
   xmlns:sodipodi="http://sodipodi.sourceforge.net/DTD/sodipodi-0.dtd"
   xmlns:inkscape="http://www.inkscape.org/namespaces/inkscape"
   version="1.1"
   id="Calque_1"
   x="0px"
   y="0px"
   viewBox="0 0 22.6 22.6"
   enable-background="new 0 0 38.5 31.1"
   xml:space="preserve"
   inkscape:version="0.48.4 r9939"
   width="100%"
   height="100%"
   sodipodi:docname="button-15.svg"><metadata
     id="metadata13"><rdf:RDF><cc:Work
         rdf:about=""><dc:format>image/svg+xml</dc:format><dc:type
           rdf:resource="http://purl.org/dc/dcmitype/StillImage" /></cc:Work></rdf:RDF></metadata><defs
     id="defs11" /><sodipodi:namedview
     pagecolor="#ffffff"
     bordercolor="#666666"
     borderopacity="1"
     objecttolerance="10"
     gridtolerance="10"
     guidetolerance="10"
     inkscape:pageopacity="0"
     inkscape:pageshadow="2"
     inkscape:window-width="640"
     inkscape:window-height="480"
     id="namedview9"
     showgrid="false"
     fit-margin-top="0"
     fit-margin-left="0"
     fit-margin-right="0"
     fit-margin-bottom="0"
     inkscape:zoom="7.5884244"
     inkscape:cx="11.65"
     inkscape:cy="11.35"
     inkscape:window-x="57"
     inkscape:window-y="24"
     inkscape:window-maximized="0"
     inkscape:current-layer="Calque_1" /><path
     d="m 22.6,11.3 c 0,6.2 -5.1,11.3 -11.3,11.3 C 5,22.6 0,17.5 0,11.2 0.1,4.9999998 5.1,-1.9073486e-7 11.3,-1.9073486e-7 17.6,-1.9073486e-7 22.6,5.0999998 22.6,11.3 z M 11.3,1.8999998 c -5.2,0 -9.4,4.2 -9.4,9.3000002 0,5.2 4.2,9.5 9.4,9.5 5.2,0 9.3,-4.2 9.4,-9.3 0,-5.2000002 -4.1,-9.5000002 -9.4,-9.5000002 z"
     id="path3"
     inkscape:connector-curvature="0" /><path
     d="m 11.3,6.5999998 c 2.6,0 4.7,2.1 4.7,4.7000002 0,2.6 -2.1,4.7 -4.7,4.7 -2.6,0 -4.7,-2.1 -4.7,-4.7 0,-2.6000002 2,-4.7000002 4.7,-4.7000002 z"
     id="path5"
     inkscape:connector-curvature="0" /><path
     d="m 15.3,7.6999998 c -0.6,-0.4 -1.7,-1.2 -2.4,-1.6 0.9,-0.8 2.1,-1.4 3,-2.3 0,0 0,0 0,0 -0.2,1.3 -0.3,2.7 -0.6,3.9 z"
     id="path7"
     inkscape:connector-curvature="0" /></svg>