<?xml version="1.0" encoding="UTF-8" standalone="no"?>
<!-- Generator: Adobe Illustrator 17.1.0, SVG Export Plug-In . SVG Version: 6.00 Build 0)  -->

<svg
   xmlns:dc="http://purl.org/dc/elements/1.1/"
   xmlns:cc="http://creativecommons.org/ns#"
   xmlns:rdf="http://www.w3.org/1999/02/22-rdf-syntax-ns#"
   xmlns:svg="http://www.w3.org/2000/svg"
   xmlns="http://www.w3.org/2000/svg"
   xmlns:sodipodi="http://sodipodi.sourceforge.net/DTD/sodipodi-0.dtd"
   xmlns:inkscape="http://www.inkscape.org/namespaces/inkscape"
   version="1.1"
   id="Calque_1"
   x="0px"
   y="0px"
   viewBox="0 0 48.455101 15.275"
   enable-background="new 0 0 87.5 48.8"
   xml:space="preserve"
   inkscape:version="0.48.4 r9939"
   width="100%"
   height="100%"
   sodipodi:docname="fish.svg"><metadata
     id="metadata37"><rdf:RDF><cc:Work
         rdf:about=""><dc:format>image/svg+xml</dc:format><dc:type
           rdf:resource="http://purl.org/dc/dcmitype/StillImage" /></cc:Work></rdf:RDF></metadata><defs
     id="defs35" /><sodipodi:namedview
     pagecolor="#ffffff"
     bordercolor="#666666"
     borderopacity="1"
     objecttolerance="10"
     gridtolerance="10"
     guidetolerance="10"
     inkscape:pageopacity="0"
     inkscape:pageshadow="2"
     inkscape:window-width="640"
     inkscape:window-height="480"
     id="namedview33"
     showgrid="false"
     fit-margin-top="0"
     fit-margin-left="0"
     fit-margin-right="0"
     fit-margin-bottom="0"
     inkscape:zoom="3.9771429"
     inkscape:cx="23.705102"
     inkscape:cy="7.6999995"
     inkscape:window-x="305"
     inkscape:window-y="139"
     inkscape:window-maximized="0"
     inkscape:current-layer="Calque_1" /><g
     id="g3"
     transform="translate(-20.044899,-16.825)"><path
       d="m 23,20.5 c -0.6,-0.3 -1.3,-0.7 -2,-0.5 0,0.2 0.1,0.3 0,0.5 0,0 -0.1,0.1 -0.1,0.1 -0.2,0.3 0.2,0.7 -0.1,1 -0.1,0.1 -0.3,0.2 -0.3,0.3 0,0.1 0.1,0.2 0.1,0.4 0,0.2 -0.1,0.4 -0.1,0.5 0,0.3 0.2,0.6 0,0.8 -0.1,0.1 -0.1,0.1 -0.2,0.2 0,0.1 0.1,0.2 0.1,0.3 0.1,0.2 -0.2,0.4 -0.3,0.5 0.2,0.2 0.2,0.5 0.1,0.7 0,0.1 -0.1,0.2 -0.1,0.3 0,0.1 0.1,0.1 0.2,0.2 0.1,0.2 -0.2,0.4 -0.1,0.6 0,0.1 0.1,0.1 0.1,0.1 0.1,0.2 0,0.4 -0.1,0.6 0.1,0 0.1,0.1 0.2,0.1 0,0.1 0,0.2 0,0.3 0.5,0 0.9,0 1.4,0 -0.5,0.3 -0.9,0.6 -1.4,0.9 0,0.1 0.3,0.2 0.3,0.3 0.1,0.2 -0.2,0.4 -0.2,0.6 0.1,0 0.2,0.1 0.2,0.1 0,0.1 0,0.2 0,0.3 0.3,-0.1 0.6,0.3 0.4,0.6 0.7,-0.2 1.5,-0.4 2.2,-0.7 0.4,-0.2 0.8,-0.4 1.2,-0.6 0.4,-0.2 0.8,-0.3 1.1,-0.5 0.3,-0.2 0.6,-0.4 0.9,-0.7 0.4,-0.3 0.7,-0.6 1.1,-0.9 0.1,-0.1 0.2,-0.2 0.3,-0.3 0.1,-0.1 0.1,-0.3 0.2,-0.4 0.2,-0.6 0.2,-1.2 0.1,-1.8 0,-0.3 0,-0.8 -0.3,-1 C 27.6,23 27,22.9 26.6,22.7 26.1,22.4 25.5,22.1 25,21.8 c -0.8,-0.6 -1.4,-1 -2,-1.3 z"
       id="path5"
       inkscape:connector-curvature="0"
       style="fill:#32312d" /><path
       d="m 40.4,19 c -1,-0.7 -2.1,-1.4 -3.1,-2.1 -0.1,-0.1 -0.2,-0.1 -0.3,0 -2.9,1.4 -3.2,3.2 -3.2,3.4 -0.3,1 1.2,1.2 1.1,1.3 -0.1,0.1 -0.8,0.9 -0.7,1 0,0 0,0 0,0 0,0 0,0 0,0 0,0.2 0.1,0.3 0.3,0.3 0.6,0.1 1.3,-0.1 1.9,-0.3 0.8,-0.3 1.5,-0.7 2.2,-1.1 0.4,-0.2 0.8,-0.4 1.2,-0.6 0.4,-0.2 0.9,-0.2 1.2,-0.5 0.9,-0.4 -0.1,-1 -0.6,-1.4 z"
       id="path7"
       inkscape:connector-curvature="0"
       style="fill:#646460" /><path
       d="m 48.1,29.2 c -0.5,0.7 -1,1.3 -1.6,1.9 -0.6,0.5 -1.4,0.9 -2.2,1 0.1,-0.1 0.1,-0.3 0.1,-0.4 0,-0.1 -0.1,-0.3 -0.2,-0.3 0.3,-0.1 0.5,-0.3 0.7,-0.6 -0.2,-0.1 -0.5,-0.1 -0.7,-0.1 0.1,-0.1 0.2,-0.1 0.2,-0.2 -0.1,-0.1 -0.2,-0.1 -0.3,-0.1 0.1,-0.2 0.3,-0.3 0.6,-0.5 0.2,-0.1 0.4,-0.3 0.4,-0.6 -0.3,-0.1 -0.5,-0.1 -0.8,-0.2 0.1,-0.1 0.1,-0.1 0.2,-0.2 0,-0.1 -0.1,-0.2 -0.2,-0.2 0.3,-0.2 0.6,-0.2 0.9,-0.3 0.3,-0.1 0.6,-0.3 0.8,-0.5 0.2,-0.3 0.1,-0.7 -0.2,-0.8 0,-0.3 0.4,-0.4 0.8,-0.4 0.3,0 0.7,0 1,0 0.6,0 1.3,0.2 1.5,0.8 -0.1,0.5 -0.7,1.3 -1,1.7 z"
       id="path9"
       inkscape:connector-curvature="0"
       style="fill:#646460" /><path
       d="m 39.9,29.3 c -0.8,0.6 -2.9,2.8 -3.6,2.4 -2.2,-1.2 -2.1,-4.5 -2.2,-4.6 0.4,0.2 1.4,0.1 1.9,0 0.5,-0.1 0.5,-0.3 1,-0.4 0.7,-0.1 2.4,0.4 2.3,1.4 -0.1,0.5 2.5,0.1 2.1,0.3 -0.6,0.2 -1,0.6 -1.5,0.9 z"
       id="path11"
       inkscape:connector-curvature="0"
       style="fill:#646460" /><path
       d="m 67.4,25.8 c -0.4,0.3 -0.8,0.5 -1.2,0.7 -0.1,0.1 -0.2,0.1 -0.4,0.2 -0.7,0.4 -1.4,0.7 -2.1,0.9 -1,0.2 -2,0.5 -3,0.6 -2.3,0.3 -4.6,0.2 -6.9,0.2 -2.5,0 -5.1,0 -7.6,0 -1.3,0 -2.5,0 -3.8,0.1 -1.1,0 -2.3,0.2 -3.4,0.1 -0.3,0 -0.6,-0.1 -0.9,-0.2 -1,-0.3 -1.8,-0.9 -2.6,-1.4 -0.3,-0.2 -0.5,-0.2 -0.8,-0.3 -0.5,-0.1 -1,-0.2 -1.5,-0.3 -0.5,0 -1,0 -1.4,0 -1.5,0.1 -2.9,0.3 -4.4,0.7 -0.4,0.1 -0.9,0.2 -1.3,0.1 C 25.7,27.1 25.3,26.7 25.2,26.3 25,25.9 25,25.4 25,25 c 0,-0.2 0,-0.5 0.1,-0.7 0.1,-0.3 0.2,-0.7 0.4,-0.9 0.1,-0.2 0.3,-0.3 0.5,-0.4 0.1,0 0.3,0 0.4,0 0.8,0 1.6,0.1 2.4,0.2 1.7,0.3 3.6,-0.6 5.2,-1.1 5.3,-1.9 10.8,-3.4 16.4,-3.5 1.6,-0.1 3.2,0 4.7,0.2 2.2,0.2 4.3,0.7 6.4,1.5 2,0.7 3.8,1.8 5.7,2.8 0.5,0.3 1.1,0.6 1.3,1.2 -0.2,0.4 -0.7,1.1 -1.1,1.5 z"
       id="path13"
       inkscape:connector-curvature="0"
       style="fill:#d6d5c8" /><path
       d="m 67.4,25.8 c -0.4,0.3 -0.8,0.5 -1.2,0.7 -0.1,0.1 -0.2,0.1 -0.4,0.2 -0.3,-0.1 -0.7,-0.1 -1,-0.2 -0.5,-0.1 -1,-0.3 -1.5,-0.6 -1,-0.5 -1.8,-1.3 -2.4,-2.2 -0.4,-0.6 -0.7,-1.2 -1.2,-1.7 -0.9,-0.8 -2.3,-0.7 -3.5,-0.6 -10.4,0.9 -20.8,2.4 -31.3,2.9 0.1,-0.3 0.2,-0.7 0.4,-0.9 0.1,-0.2 0.3,-0.3 0.5,-0.4 0.1,0 0.3,0 0.4,0 0.8,0 1.6,0.1 2.4,0.2 1.7,0.3 3.6,-0.6 5.2,-1.1 5.3,-1.9 10.8,-3.4 16.4,-3.5 1.6,-0.1 3.2,0 4.7,0.2 2.2,0.2 4.3,0.7 6.4,1.5 2,0.7 3.8,1.8 5.7,2.8 0.5,0.3 1.1,0.6 1.3,1.2 0,0.4 -0.5,1.1 -0.9,1.5 z"
       id="path15"
       inkscape:connector-curvature="0"
       style="fill:#99a9b1" /><ellipse
       transform="matrix(1,-0.00545036,0.00545036,1,-0.1304,0.3515)"
       cx="64.400002"
       cy="24.1"
       rx="1.5"
       ry="1.5"
       id="ellipse17"
       sodipodi:cx="64.400002"
       sodipodi:cy="24.1"
       sodipodi:rx="1.5"
       sodipodi:ry="1.5"
       style="fill:#ffffff"
       d="m 65.900002,24.1 c 0,0.828428 -0.671573,1.5 -1.5,1.5 -0.828428,0 -1.5,-0.671572 -1.5,-1.5 0,-0.828427 0.671572,-1.5 1.5,-1.5 0.828427,0 1.5,0.671573 1.5,1.5 z" /><circle
       cx="64.599998"
       cy="23.9"
       r="0.69999999"
       id="circle19"
       sodipodi:cx="64.599998"
       sodipodi:cy="23.9"
       sodipodi:rx="0.69999999"
       sodipodi:ry="0.69999999"
       style="fill:#272425"
       d="m 65.299998,23.9 c 0,0.386599 -0.3134,0.7 -0.7,0.7 -0.386599,0 -0.7,-0.313401 -0.7,-0.7 0,-0.3866 0.313401,-0.7 0.7,-0.7 0.3866,0 0.7,0.3134 0.7,0.7 z" /><path
       d="m 60.6,25.4 c 0,0.2 0,0.5 0.1,0.7 0.2,0.5 0.8,0.8 1.3,1 -0.3,-0.1 -0.7,-0.2 -1,-0.3 -0.1,-0.1 -0.3,-0.1 -0.4,-0.3 -0.1,-0.1 -0.2,-0.3 -0.2,-0.5 -0.2,-0.9 0.1,-2.2 0.6,-3 0.1,0.3 -0.1,0.7 -0.2,1 -0.1,0.4 -0.2,0.9 -0.2,1.4 z"
       id="path21"
       inkscape:connector-curvature="0"
       style="fill:#b1b2b5" /><path
       d="m 60.3,22.8 c 0,0 -12.4,1.2 -14.9,1.2 -2.6,-0.1 -18.9,1 -20.6,1 -1.7,0 -4.1,-0.3 -4.1,-0.3 0,0 -1.2,0.4 0,0.8 1.1,0.3 3.1,0.3 4.1,0.2 0.8,-0.1 20.5,-0.1 26.2,-1.1 4.5,-0.7 9.1,-1.1 9.7,-1.1 0.3,0 -0.4,-0.7 -0.4,-0.7 z"
       id="path23"
       inkscape:connector-curvature="0"
       style="fill:#2d455b" /><path
       d="m 60.3,24.3 c 0,0 -8.1,1.4 -10,1.5 -2.8,0.1 -9.6,0.4 -9.6,0.4 0,0 -6.4,0.1 -8.1,0.1 -1.6,0.1 15.4,0.3 17.4,0 1.3,-0.1 6.9,-0.4 10.3,-2 z"
       id="path25"
       inkscape:connector-curvature="0"
       style="fill:#2d455b" /><path
       d="m 55.3,24.6 c -1.1,0 -2.1,0.1 -3.2,0.2 -0.3,0 -0.7,0.1 -0.9,0.3 0,0 -0.1,0.1 -0.1,0.1 0,0 0,0.1 0,0.1 0,0.3 0.1,0.6 0.3,0.8 0.2,0.2 0.6,0.2 0.8,0.4 0.1,0.1 0.2,0.2 0.2,0.2 0.2,0.1 0.4,0.2 0.6,0.3 0.3,0.1 0.8,0.3 1.6,0.4 0.2,0 0.5,0 0.7,0.2 0.1,0 0.1,0.1 0.2,0.1 0.1,0.1 0.3,0 0.4,0 0.6,-0.2 1.1,-0.4 1.6,-0.8 0,0 0.1,-0.1 0.1,-0.1 0,-0.1 0,-0.1 -0.1,-0.2 -0.1,0 -0.1,0 -0.2,0 -0.3,0 -0.5,-0.3 -0.5,-0.6 0,-0.3 0.1,-0.5 0.3,-0.8 0.1,-0.1 0.3,-0.4 0.2,-0.5 -0.1,-0.1 -0.5,-0.2 -0.6,-0.2 -0.5,0.1 -1,0.1 -1.4,0.1 z"
       id="path27"
       inkscape:connector-curvature="0"
       style="fill:#efeeea" /><path
       d="m 59.6,22 c 0,0 -0.7,-0.9 -2.8,-0.7 -2.1,0.2 -12.3,0.3 -14.8,0.7 -13.3,1.9 -16.1,1.1 -16.9,1.3 -0.8,0.2 -4.8,0.3 -4.8,0.3 0,0 -0.5,0.4 -0.1,0.5 1.1,0.2 4.1,0.2 4.5,0.2 0.7,0 17.8,-1.3 19.2,-1.3 1.4,0 13.3,-0.8 14.5,-0.9 C 59.6,22 59.6,22 59.6,22 z"
       id="path29"
       inkscape:connector-curvature="0"
       style="fill:#2d455b" /><path
       d="m 28.4,26.8 -6.3,0.3 -0.8,0.4 c -0.1,0 3.7,0.6 7.1,-0.7 z"
       id="path31"
       inkscape:connector-curvature="0"
       style="fill:#2d455b" /></g></svg>