<?xml version="1.0" encoding="UTF-8" standalone="no"?>
<!-- Generator: Adobe Illustrator 17.1.0, SVG Export Plug-In . SVG Version: 6.00 Build 0)  -->

<svg
   xmlns:dc="http://purl.org/dc/elements/1.1/"
   xmlns:cc="http://creativecommons.org/ns#"
   xmlns:rdf="http://www.w3.org/1999/02/22-rdf-syntax-ns#"
   xmlns:svg="http://www.w3.org/2000/svg"
   xmlns="http://www.w3.org/2000/svg"
   xmlns:sodipodi="http://sodipodi.sourceforge.net/DTD/sodipodi-0.dtd"
   xmlns:inkscape="http://www.inkscape.org/namespaces/inkscape"
   version="1.1"
   id="Calque_1"
   x="0px"
   y="0px"
   viewBox="0 0 55.911025 24.275002"
   enable-background="new 0 0 87.5 47.2"
   xml:space="preserve"
   inkscape:version="0.48.4 r9939"
   width="100%"
   height="100%"
   sodipodi:docname="ribot-ccw.svg"><metadata
     id="metadata47"><rdf:RDF><cc:Work
         rdf:about=""><dc:format>image/svg+xml</dc:format><dc:type
           rdf:resource="http://purl.org/dc/dcmitype/StillImage" /></cc:Work></rdf:RDF></metadata><defs
     id="defs45" /><sodipodi:namedview
     pagecolor="#ffffff"
     bordercolor="#666666"
     borderopacity="1"
     objecttolerance="10"
     gridtolerance="10"
     guidetolerance="10"
     inkscape:pageopacity="0"
     inkscape:pageshadow="2"
     inkscape:window-width="640"
     inkscape:window-height="480"
     id="namedview43"
     showgrid="false"
     fit-margin-top="0"
     fit-margin-left="0"
     fit-margin-right="0"
     fit-margin-bottom="0"
     inkscape:zoom="7.9542857"
     inkscape:cx="29.324268"
     inkscape:cy="11.481374"
     inkscape:window-x="57"
     inkscape:window-y="24"
     inkscape:window-maximized="0"
     inkscape:current-layer="g3" /><g
     id="g3"
     transform="translate(-15.8,-16.125)"><rect
       x="-38.111023"
       y="32.799999"
       width="0.80000001"
       height="6.5"
       id="rect5"
       style="fill:#ffffff"
       transform="scale(-1,1)" /><rect
       x="-41.311024"
       y="39.400002"
       width="7.1999998"
       height="1"
       id="rect7"
       style="fill:#ffffff"
       transform="scale(-1,1)" /><path
       d="m 68.311025,20.2 c 0.7,-0.4 1.5,-0.8 2.3,-0.6 0,0.2 -0.1,0.4 0,0.5 0,0 0.1,0.1 0.1,0.1 0.3,0.3 -0.2,0.9 0.1,1.2 0.1,0.1 0.3,0.2 0.4,0.4 0,0.2 -0.1,0.3 -0.1,0.4 0,0.2 0.1,0.4 0.1,0.6 0,0.3 -0.2,0.7 0,1 0.1,0.1 0.2,0.1 0.2,0.2 0,0.1 -0.1,0.2 -0.1,0.3 -0.1,0.2 0.2,0.4 0.4,0.5 -0.2,0.2 -0.2,0.6 -0.1,0.8 0.1,0.1 0.1,0.2 0.1,0.3 0,0.1 -0.2,0.1 -0.2,0.2 -0.1,0.2 0.2,0.5 0.1,0.7 0,0.1 -0.1,0.1 -0.1,0.2 -0.1,0.2 0,0.5 0.1,0.6 -0.1,0 -0.1,0.1 -0.2,0.1 0,0.1 0,0.2 0,0.3 -0.5,0 -1,0 -1.6,0 0.6,0.3 1.1,0.6 1.6,1 -0.1,0.2 -0.3,0.2 -0.4,0.3 -0.1,0.2 0.3,0.4 0.3,0.7 -0.1,0 -0.2,0.1 -0.3,0.1 0,0.1 0,0.2 0,0.4 -0.3,-0.1 -0.6,0.4 -0.5,0.7 -0.9,-0.2 -1.7,-0.4 -2.5,-0.8 -0.5,-0.2 -0.9,-0.5 -1.4,-0.7 -0.4,-0.2 -0.9,-0.4 -1.3,-0.6 -0.4,-0.2 -0.7,-0.5 -1,-0.8 -0.4,-0.3 -0.8,-0.7 -1.2,-1 -0.1,-0.1 -0.2,-0.2 -0.3,-0.3 -0.1,-0.1 -0.2,-0.3 -0.2,-0.5 -0.2,-0.7 -0.2,-1.4 -0.1,-2.1 0,-0.4 0.1,-0.9 0.3,-1.2 0.3,-0.4 1,-0.6 1.5,-0.8 0.6,-0.3 1.3,-0.7 1.9,-1 0.6,-0.4 1.4,-0.8 2.1,-1.2 z"
       id="path9"
       inkscape:connector-curvature="0"
       style="fill:#32312d" /><path
       d="m 48.111025,18.6 c 1.2,-0.8 2.4,-1.6 3.6,-2.4 0.1,-0.1 0.3,-0.1 0.4,0 3.4,1.6 3.7,3.7 3.8,4 0.4,1.2 -1.4,1.4 -1.3,1.5 0.1,0.1 0.9,1 0.8,1.1 0,0 0,0 0,0 0,0 0,0 0,0.1 0,0.2 -0.1,0.4 -0.3,0.4 -0.7,0.1 -1.5,-0.1 -2.2,-0.4 -0.9,-0.3 -1.7,-0.8 -2.5,-1.3 -0.5,-0.2 -0.9,-0.5 -1.4,-0.7 -0.4,-0.2 -1,-0.3 -1.4,-0.5 -1.2,-0.8 -0.1,-1.4 0.5,-1.8 z"
       id="path11"
       inkscape:connector-curvature="0"
       style="fill:#646460" /><path
       d="m 16.811025,26.3 c 0.4,0.3 0.9,0.6 1.4,0.8 0.1,0.1 0.3,0.1 0.4,0.2 0.8,0.4 1.6,0.8 2.5,1 1.2,0.2 2.3,0.5 3.5,0.7 2.6,0.3 5.3,0.3 8,0.3 2.9,0 5.9,-0.1 8.8,0 1.5,0 2.9,0 4.4,0.1 1.3,0 2.7,0.2 4,0.2 0.4,0 0.7,-0.1 1,-0.2 1.1,-0.4 2.1,-1 3.1,-1.6 0.3,-0.2 0.6,-0.2 1,-0.3 0.6,-0.1 1.1,-0.3 1.7,-0.3 0.6,-0.1 1.1,0 1.7,0 1.7,0.1 3.4,0.4 5.1,0.8 0.5,0.1 1,0.3 1.5,0.1 0.5,-0.1 0.9,-0.6 1.1,-1 0.2,-0.5 0.3,-1 0.2,-1.5 0,-0.3 0,-0.5 -0.1,-0.8 -0.1,-0.4 -0.2,-0.8 -0.5,-1.1 -0.1,-0.2 -0.3,-0.4 -0.5,-0.4 -0.2,0 -0.3,-0.1 -0.5,-0.1 -0.9,0 -1.8,0.1 -2.8,0.2 -1.9,0.4 -4.2,-0.7 -6,-1.3 -6.1,-2.2 -12.5,-3.9 -19,-4.1 -1.8,-0.1 -3.7,0 -5.5,0.2 -2.5,0.3 -5,0.8 -7.4,1.7 -2.3,0.8 -4.4,2.1 -6.6,3.2 -0.6,0.3 -1.3,0.7 -1.5,1.4 -0.1,0.6 0.5,1.5 1,1.8 z"
       id="path13"
       inkscape:connector-curvature="0"
       style="fill:#d6d5c8" /><path
       d="m 16.811025,26.3 c 0.4,0.3 0.9,0.6 1.4,0.8 0.1,0.1 0.3,0.1 0.4,0.2 0.4,-0.1 0.8,-0.1 1.1,-0.2 0.6,-0.2 1.2,-0.4 1.8,-0.7 1.1,-0.6 2.1,-1.5 2.8,-2.5 0.4,-0.7 0.8,-1.4 1.4,-2 1.1,-0.9 2.7,-0.9 4.1,-0.7 12.1,1 24.2,2.8 36.3,3.4 -0.1,-0.4 -0.2,-0.8 -0.5,-1.1 -0.1,-0.2 -0.3,-0.4 -0.5,-0.4 -0.2,0 -0.3,-0.1 -0.5,-0.1 -0.9,0 -1.8,0.1 -2.8,0.2 -1.9,0.4 -4.2,-0.7 -6,-1.3 -6.1,-2.2 -12.5,-3.9 -19,-4.1 -1.8,-0.1 -3.7,0 -5.5,0.2 -2.5,0.3 -5,0.8 -7.4,1.7 -2.3,0.8 -4.4,2.1 -6.6,3.2 -0.6,0.3 -1.3,0.7 -1.5,1.4 -0.1,0.8 0.5,1.7 1,2 z"
       id="path15"
       inkscape:connector-curvature="0"
       style="fill:#4d8c3f" /><circle
       cx="67.300003"
       cy="24.4"
       r="1.8"
       id="circle17"
       d="m 69.100003,24.4 c 0,0.994112 -0.805887,1.8 -1.8,1.8 -0.994112,0 -1.8,-0.805888 -1.8,-1.8 0,-0.994113 0.805888,-1.8 1.8,-1.8 0.994113,0 1.8,0.805887 1.8,1.8 z"
       sodipodi:cx="67.300003"
       sodipodi:cy="24.4"
       sodipodi:rx="1.8"
       sodipodi:ry="1.8"
       style="fill:#ffffff"
       transform="matrix(-1,0,0,1,87.511025,0)" /><circle
       cx="67.5"
       cy="24.200001"
       r="0.80000001"
       id="circle19"
       d="m 68.3,24.200001 c 0,0.441828 -0.358172,0.8 -0.8,0.8 -0.441828,0 -0.8,-0.358172 -0.8,-0.8 0,-0.441828 0.358172,-0.8 0.8,-0.8 0.441828,0 0.8,0.358172 0.8,0.8 z"
       sodipodi:cx="67.5"
       sodipodi:cy="24.200001"
       sodipodi:rx="0.80000001"
       sodipodi:ry="0.80000001"
       style="fill:#d19032"
       transform="matrix(-1,0,0,1,87.511025,0)" /><path
       d="m 38.211025,25.9 c -0.3,0 -0.7,0 -1,0 -0.4,0 -0.7,-0.3 -0.8,-0.7 0,0 0,-0.1 0,-0.1 0,-0.6 0,-1.3 0,-1.9 0,-0.4 0.3,-0.7 0.7,-0.8 0,0 0.1,0 0.2,0 0.6,0 1.3,0 1.9,0 0.4,0 0.7,0.2 0.8,0.6 0,0.1 0,0.1 0,0.2 0,0.6 0,1.3 0,1.9 0,0.4 -0.3,0.8 -0.8,0.8 -0.4,0 -0.7,0 -1,0 z"
       id="path21"
       inkscape:connector-curvature="0" /><path
       d="m 38.711025,19 c 0,0.6 0,1.3 0,1.9 0,0 0,0 0,0.1 -0.2,0.1 -0.4,0.4 -0.3,0.6 0.1,0.2 0.3,0.4 0.5,0.4 0.3,0 0.5,-0.2 0.5,-0.4 0.1,-0.2 -0.1,-0.5 -0.3,-0.6 0,0 -0.1,0 -0.1,-0.1 0,-0.6 0,-1.3 0,-1.9 0,0 0,-0.1 0,-0.1 0,-0.2 -0.1,-0.3 -0.3,-0.3 -0.1,0 -0.1,0 -0.2,0 -0.4,0.1 -0.7,0.3 -1.1,0.4 -0.5,0.2 -1,0.4 -1.5,0.6 -0.1,0 -0.2,0.1 -0.3,0.1 -0.6,0 -4.6,0 -5.2,0 0,0 0,0 -0.1,0 -0.1,-0.3 -0.5,-0.5 -0.8,-0.5 -0.3,0.1 -0.6,0.4 -0.6,0.7 0,0.4 0.3,0.7 0.6,0.7 0.4,0.1 0.7,-0.2 0.8,-0.5 0,0 0,0 0.1,0 0.6,0 4.6,0 5.2,0 0,0 0.1,0 0.1,0 0.2,-0.1 0.4,-0.1 0.7,-0.2 0.6,-0.2 1.3,-0.5 1.9,-0.7 0.1,-0.2 0.3,-0.2 0.4,-0.2 0,0 0,0 0,0 z m -9,1.2 c -0.2,0 -0.4,-0.2 -0.4,-0.4 0,-0.2 0.2,-0.4 0.4,-0.4 0.2,0 0.4,0.2 0.4,0.4 0,0.2 -0.2,0.4 -0.4,0.4 z"
       id="path23"
       inkscape:connector-curvature="0" /><path
       d="m 31.211025,25.7 c 0,-1 0,1 0,0 0,-0.1 0,-0.2 0,-0.3 0,-0.2 0.1,-0.3 0.3,-0.3 0,0 0.1,0 0.1,0 0.3,0 2.7,0 3.1,0 0.1,0 0.1,0 0.1,0.1 0.1,0.2 0.4,0.4 0.7,0.3 0.3,-0.1 0.4,-0.4 0.3,-0.6 -0.1,-0.2 -0.2,-0.4 -0.5,-0.4 -0.2,0 -0.4,0.1 -0.5,0.3 0,0 0,0 -0.1,0 -0.2,0 -0.4,0 -0.6,0 -0.2,0 -2.5,0 -2.7,0 -0.3,0 -0.5,0.2 -0.6,0.5 -0.1,0.1 -0.1,0.3 -0.1,0.5 0,1 0,-1 0,0 0,0 0,0.1 -0.1,0.1 -0.3,0.1 -0.6,0.5 -0.5,0.8 0.1,0.3 0.2,0.5 0.5,0.6 0.3,0.1 0.5,0 0.7,-0.2 0.3,-0.3 0.3,-0.9 -0.1,-1.1 0.2,-0.2 0.1,-0.2 0,-0.3 0,0.1 0,0 0,0 z m -0.2,1.1 c -0.2,0 -0.4,-0.2 -0.4,-0.4 0,-0.2 0.2,-0.4 0.4,-0.4 0.2,0 0.4,0.2 0.4,0.4 0,0.3 -0.2,0.4 -0.4,0.4 z"
       id="path25"
       inkscape:connector-curvature="0" /><path
       d="m 41.511025,23.3 c 0,0 0,0 0,0 0,-0.1 -0.1,-0.2 -0.2,-0.3 -0.2,-0.2 -0.4,-0.2 -0.7,0 -0.2,0.1 -0.3,0.4 -0.2,0.6 0.1,0.2 0.3,0.4 0.5,0.4 0.2,0 0.4,-0.1 0.5,-0.2 0,0 0,0 0.1,0 0.3,0 0.6,0 1,0 0.3,0 0.5,-0.2 0.6,-0.5 0,-0.1 0.1,-0.3 0.1,-0.5 0,-0.9 0,-1.8 0,-2.7 0,0 0,-0.1 0.1,-0.1 0.3,-0.1 0.5,-0.5 0.4,-0.8 -0.1,-0.3 -0.4,-0.6 -0.8,-0.5 -0.3,0 -0.5,0.3 -0.6,0.6 0,0.3 0.1,0.6 0.4,0.7 0,0 0,0 0,0.1 0,0.9 0,1.8 0,2.7 0,0.1 0,0.2 0,0.3 0,0.2 -0.2,0.4 -0.4,0.4 -0.1,0 -0.2,0 -0.4,0 -0.1,-0.2 -0.2,-0.2 -0.4,-0.2 0,0 0,0 0,0 z m 1.5,-3.7 c -0.2,0 -0.3,-0.1 -0.3,-0.3 0,-0.2 0.1,-0.3 0.3,-0.3 0.2,0 0.3,0.1 0.3,0.3 0,0.2 -0.1,0.3 -0.3,0.3 z"
       id="path27"
       inkscape:connector-curvature="0" /><path
       d="m 45.011025,25.8 c 0,0 0,0 0,0 0.1,0 0.2,-0.1 0.3,-0.2 0.2,-0.2 0.2,-0.4 0,-0.7 -0.1,-0.2 -0.4,-0.3 -0.6,-0.2 -0.2,0.1 -0.3,0.2 -0.4,0.4 0,0.2 0.1,0.4 0.2,0.5 0,0 0,0 0,0.1 0,0.3 0,0.6 0,1 0,0.3 0.2,0.5 0.5,0.6 0.1,0 0.3,0.1 0.5,0.1 0.9,0 1.8,0 2.7,0 0,0 0.1,0 0.1,0.1 0.1,0.3 0.5,0.5 0.8,0.4 0.3,-0.1 0.6,-0.4 0.5,-0.8 0,-0.3 -0.3,-0.5 -0.6,-0.6 -0.3,0 -0.6,0.1 -0.7,0.4 0,0 0,0 -0.1,0 -0.9,0 -1.8,0 -2.7,0 -0.1,0 -0.2,0 -0.3,0 -0.2,0 -0.4,-0.2 -0.4,-0.4 0,-0.1 0,-0.2 0,-0.4 0.2,0.1 0.2,-0.1 0.2,-0.3 0,0 0,0 0,0 z m 3.7,1.5 c 0,-0.2 0.1,-0.3 0.3,-0.3 0.2,0 0.3,0.1 0.3,0.3 0,0.2 -0.1,0.3 -0.3,0.3 -0.2,0 -0.3,-0.1 -0.3,-0.3 z"
       id="path29"
       inkscape:connector-curvature="0" /><path
       d="m 37.311025,20.9 c 0,0 0,0 0,0 -0.2,0.1 -0.3,0.2 -0.3,0.3 -0.1,0.2 -0.1,0.4 0,0.6 0.1,0.2 0.3,0.2 0.5,0.2 0.2,0 0.4,-0.2 0.4,-0.5 0,-0.2 -0.1,-0.4 -0.3,-0.6 0,0 0,0 0,-0.1 0,-0.1 0,-0.3 0,-0.4 0,0 0,-0.1 0,-0.1 0,-0.1 -0.2,-0.2 -0.3,-0.2 -0.1,0 -0.1,0 -0.2,0.1 -0.2,0.1 -0.4,0.2 -0.6,0.3 -0.5,0.3 -1,0.5 -1.6,0.8 -0.2,0.1 -0.4,0.2 -0.6,0.2 -0.2,0 -3.7,0 -3.9,0 0,0 0,0 -0.1,0 -0.1,-0.3 -0.4,-0.5 -0.6,-0.5 -0.3,0 -0.5,0.1 -0.7,0.4 -0.1,0.2 -0.1,0.5 0,0.7 0.3,0.4 0.9,0.5 1.2,0 0,-0.1 0.1,-0.1 0.1,-0.2 0.1,0 0.2,0 0.3,0 0.1,0 3.6,0 3.8,0 0.2,0 0.4,-0.1 0.6,-0.2 0.6,-0.3 1.3,-0.6 1.9,-0.9 0.1,0 0.2,-0.1 0.3,-0.1 0.1,0 0.1,0.1 0.1,0.2 z m -7.2,0.8 c 0,0.2 -0.2,0.4 -0.4,0.4 -0.2,0 -0.4,-0.2 -0.4,-0.4 0,-0.2 0.2,-0.4 0.4,-0.4 0.3,0 0.4,0.2 0.4,0.4 z"
       id="path31"
       inkscape:connector-curvature="0" /><path
       d="m 36.011025,26.6 c -0.3,0 -0.6,0 -0.9,0 -0.4,0 -0.7,0.2 -0.7,0.6 0,0.1 0,0.3 0,0.4 0,0 0,0 0,0.1 -0.4,0.1 -0.6,0.4 -0.5,0.8 0,0.3 0.3,0.5 0.5,0.6 0.3,0.1 0.6,0 0.8,-0.3 0.3,-0.4 0.1,-1 -0.3,-1.1 0,0 0,0 0,0 0,-0.1 0,-0.2 0,-0.3 0,-0.2 0.2,-0.4 0.4,-0.4 0.6,0 1.1,0 1.7,0 0,0 0,0 0,0 0,0.1 0.1,0.1 0.1,0.2 0.1,0.2 0.3,0.2 0.6,0.2 0.2,-0.1 0.3,-0.2 0.4,-0.5 0,-0.3 -0.1,-0.5 -0.4,-0.6 -0.2,-0.1 -0.5,0 -0.6,0.3 0,0 0,0 -0.1,0 -0.4,0 -0.7,0 -1,0 0,0 0,0 0,0 z m -1,1.8 c 0,0.2 -0.2,0.3 -0.4,0.3 -0.2,0 -0.4,-0.2 -0.3,-0.4 0,-0.2 0.2,-0.3 0.4,-0.3 0.1,0 0.3,0.2 0.3,0.4 z"
       id="path33"
       inkscape:connector-curvature="0" /><path
       d="m 40.911025,27.7 c 0,-0.1 0,-0.2 0,-0.3 0,-0.2 0,-0.3 -0.1,-0.5 -0.1,-0.2 -0.4,-0.3 -0.6,-0.3 -0.2,0 -0.5,0 -0.7,0 0,0 -0.1,0 -0.1,0 -0.1,-0.2 -0.4,-0.3 -0.6,-0.3 -0.2,0.1 -0.4,0.3 -0.4,0.5 0,0.3 0.2,0.5 0.4,0.5 0.3,0.1 0.5,-0.1 0.6,-0.3 0,0 0,0 0,0 0.2,0 0.5,0 0.7,0 0.2,0 0.3,0.1 0.4,0.3 0,0 0,0.1 0,0.1 0,0.2 0,0 0,0.2 0,0 0,0 0,0 -0.5,0.2 -0.7,0.8 -0.3,1.2 0.2,0.2 0.5,0.3 0.8,0.2 0.3,0 0.5,-0.3 0.5,-0.6 0,-0.3 -0.2,-0.6 -0.6,-0.7 0.1,0 0.1,0 0,0 0.1,-0.2 0,0.2 0,0 0,0 0,0 0,0 z m -0.1,1.1 c -0.2,0 -0.4,-0.2 -0.4,-0.4 0,-0.2 0.2,-0.4 0.4,-0.4 0.2,0 0.4,0.2 0.4,0.4 0,0.2 -0.2,0.4 -0.4,0.4 z"
       id="path35"
       inkscape:connector-curvature="0" /><path
       d="m 56.411025,25.7 c 0.3,-0.1 0.6,-0.4 0.6,-0.7 0,-0.3 -0.2,-0.6 -0.6,-0.7 -0.2,0 -0.3,0 -0.5,0.1 -0.2,0.1 -0.3,0.3 -0.4,0.5 0,0 0,0 0,0 -0.4,0 -13.6,0 -14.1,0 0,0 0,0 0,0 -0.1,-0.2 -0.3,-0.3 -0.5,-0.3 -0.3,0 -0.5,0.2 -0.5,0.5 0,0.3 0.1,0.5 0.4,0.6 0.3,0.1 0.5,-0.1 0.6,-0.3 0,0 0,0 0.1,0 0.4,0 13.6,0 14,0 0,0 0,0 0,0 0.2,0.2 0.5,0.4 0.9,0.3 z m -0.2,-0.3 c -0.2,0 -0.4,-0.2 -0.4,-0.4 0,-0.2 0.2,-0.3 0.4,-0.3 0.2,0 0.4,0.2 0.4,0.4 0,0.1 -0.2,0.3 -0.4,0.3 z"
       id="path37"
       inkscape:connector-curvature="0" /><path
       d="m 24.711025,23.1 c -0.1,0.2 -0.1,0.5 0,0.7 0.2,0.3 0.4,0.4 0.7,0.3 0.3,0 0.5,-0.2 0.6,-0.5 0,0 0,0 0.1,0 0.3,0 8.5,0 8.8,0 0,0 0,0 0.1,0 0.1,0.2 0.4,0.4 0.6,0.3 0.3,-0.1 0.4,-0.3 0.4,-0.6 0,-0.2 -0.2,-0.4 -0.5,-0.5 -0.2,0 -0.5,0.1 -0.6,0.3 0,0 0,0 -0.1,0 -0.3,0 -8.5,0 -8.8,0 0,0 0,0 -0.1,0 -0.1,-0.3 -0.4,-0.5 -0.7,-0.5 -0.1,0.1 -0.4,0.3 -0.5,0.5 z m 0.6,0.7 c -0.2,0 -0.3,-0.2 -0.3,-0.4 0,-0.2 0.2,-0.4 0.4,-0.4 0.2,0 0.4,0.2 0.4,0.4 -0.1,0.3 -0.3,0.4 -0.5,0.4 z"
       id="path39"
       inkscape:connector-curvature="0" /><path
       d="m 38.111025,33.5 h -0.8 c -0.6,0 -1.1,-0.5 -1.1,-1.1 v -3.2 h 3 v 3.2 c 0,0.6 -0.5,1.1 -1.1,1.1 z"
       id="path41"
       inkscape:connector-curvature="0"
       style="fill:#d6d5c8" /></g></svg>